<svg xmlns="http://www.w3.org/2000/svg" width="64" height="64" fill="none" viewBox="0 0 64 64"><path stroke="#1a1a1a" stroke-linecap="round" stroke-width="2.67" d="M20 22.67v-1.34c0-1.24 0-1.85.05-2.38.5-5.06 4.5-9.07 9.57-9.57.52-.05 1.14-.05 2.38-.05s1.86 0 2.38.05c5.06.5 9.07 4.51 9.57 9.57.05.53.05 1.14.05 2.38v1.34M41.33 36v-5.33M22.67 36v-5.33"/><path stroke="#1a1a1a" stroke-width="2.67" d="M14.67 32.27c0-4.53 0-6.8 1.4-8.2s3.67-1.4 8.2-1.4h15.46c4.53 0 6.8 0 8.2 1.4s1.4 3.67 1.4 8.2v6.4c0 7.54 0 11.31-2.34 13.65-2.34 2.35-6.11 2.35-13.66 2.35h-2.66c-7.55 0-11.32 0-13.66-2.35-2.34-2.34-2.34-6.11-2.34-13.65z"/></svg>