<svg xmlns="http://www.w3.org/2000/svg" width="42" height="42" fill="none" viewBox="0 0 42 42"><path stroke="#1a1a1a" stroke-width="2" d="M17.75 11.6c1.38-3.43 2.07-5.15 3.25-5.15s1.87 1.72 3.25 5.15l.06.16c.78 1.94 1.17 2.9 1.96 3.5.8.58 1.83.68 3.91.86l.38.04c3.4.3 5.1.46 5.47 1.54s-.9 2.23-3.43 4.53l-.84.77c-1.28 1.17-1.92 1.75-2.22 2.51l-.14.44c-.2.8 0 1.64.37 3.33l.12.52c.68 3.1 1.03 4.66.43 5.33q-.35.38-.84.52c-.87.24-2.1-.77-4.57-2.78-1.62-1.32-2.43-1.98-3.36-2.12a4 4 0 0 0-1.1 0c-.93.14-1.74.8-3.36 2.12-2.47 2.01-3.7 3.02-4.57 2.78a2 2 0 0 1-.84-.52c-.6-.67-.25-2.22.43-5.33l.12-.52c.38-1.7.56-2.54.37-3.33l-.14-.44c-.3-.76-.94-1.34-2.22-2.5l-.84-.78c-2.53-2.3-3.8-3.45-3.43-4.53s2.06-1.24 5.47-1.54l.38-.04c2.08-.18 3.12-.28 3.9-.86.8-.6 1.19-1.56 1.97-3.5z"/></svg>