<svg xmlns="http://www.w3.org/2000/svg" width="64" height="64" fill="none" viewBox="0 0 64 64"><path stroke="#1a1a1a" stroke-width="2.67" d="M45.33 53.33a5.33 5.33 0 1 0 0-10.66 5.33 5.33 0 0 0 0 10.66ZM18.67 53.33a5.33 5.33 0 1 0 0-10.66 5.33 5.33 0 0 0 0 10.66Z"/><path stroke="#1a1a1a" stroke-linecap="round" stroke-linejoin="round" stroke-width="2.67" d="M29.33 45.33H40m-4-26.66h2.51c3.5 0 5.25 0 6.73.84 1.48.83 2.47 2.38 4.44 5.48a17 17 0 0 0 4.88 5.15c2.06 1.41 3.04 2.1 3.59 3.2.52 1.07.52 2.33.52 4.84 0 3.31 0 4.97-.93 6.02l-.13.13c-.98 1-2.52 1-5.6 1h-1.34"/><path stroke="#1a1a1a" stroke-linecap="round" stroke-linejoin="round" stroke-width="2.67" d="m34.67 18.67 2.65 6.63c1.3 3.24 1.94 4.87 3.3 5.78s3.1.92 6.6.92H56M34.67 18.67c0-3.78 0-5.66-1.12-6.83s-2.93-1.17-6.54-1.17H13c-3.61 0-5.42 0-6.54 1.17s-1.12 3.06-1.12 6.83v18.66c0 3.78 0 5.66 1.12 6.83s2.93 1.17 6.54 1.17m21.68-26.66v26.66H23.19"/></svg>